<svg width="35" height="30" viewBox="0 0 35 30" fill="none" xmlns="http://www.w3.org/2000/svg">
<path fill-rule="evenodd" clip-rule="evenodd" d="M0 10.7143C0 10.146 0.225765 9.60092 0.627628 9.19906C1.02949 8.79719 1.57454 8.57143 2.14286 8.57143H24.2314C24.7997 8.57143 25.3448 8.79719 25.7467 9.19906C26.1485 9.60092 26.3743 10.146 26.3743 10.7143C26.3743 11.2826 26.1485 11.8277 25.7467 12.2295C25.3448 12.6314 24.7997 12.8571 24.2314 12.8571H2.14286C1.57454 12.8571 1.02949 12.6314 0.627628 12.2295C0.225765 11.8277 0 11.2826 0 10.7143ZM0 2.14286C0 1.57454 0.225765 1.02949 0.627628 0.627628C1.02949 0.225765 1.57454 0 2.14286 0H32.1429C32.7112 0 33.2562 0.225765 33.6581 0.627628C34.06 1.02949 34.2857 1.57454 34.2857 2.14286C34.2857 2.71118 34.06 3.25622 33.6581 3.65809C33.2562 4.05995 32.7112 4.28571 32.1429 4.28571H2.14286C1.57454 4.28571 1.02949 4.05995 0.627628 3.65809C0.225765 3.25622 0 2.71118 0 2.14286ZM0 19.2857C0 18.7174 0.225765 18.1723 0.627628 17.7705C1.02949 17.3686 1.57454 17.1429 2.14286 17.1429H32.1429C32.7112 17.1429 33.2562 17.3686 33.6581 17.7705C34.06 18.1723 34.2857 18.7174 34.2857 19.2857C34.2857 19.854 34.06 20.3991 33.6581 20.8009C33.2562 21.2028 32.7112 21.4286 32.1429 21.4286H2.14286C1.57454 21.4286 1.02949 21.2028 0.627628 20.8009C0.225765 20.3991 0 19.854 0 19.2857ZM0 27.8571C0 27.2888 0.225765 26.7438 0.627628 26.3419C1.02949 25.94 1.57454 25.7143 2.14286 25.7143H24.2314C24.7997 25.7143 25.3448 25.94 25.7467 26.3419C26.1485 26.7438 26.3743 27.2888 26.3743 27.8571C26.3743 28.4255 26.1485 28.9705 25.7467 29.3724C25.3448 29.7742 24.7997 30 24.2314 30H2.14286C1.57454 30 1.02949 29.7742 0.627628 29.3724C0.225765 28.9705 0 28.4255 0 27.8571Z" fill="black"/>
</svg>
