<svg width="82" height="81" viewBox="0 0 82 81" fill="none" xmlns="http://www.w3.org/2000/svg">
<circle cx="41.0176" cy="40.3775" r="40.3775" fill="#F2F8FF"/>
<path d="M41.0175 20.9963C39.0732 20.9963 37.4937 22.5759 37.4937 24.5202C37.4937 26.1582 38.6224 27.5244 40.1366 27.9202V30.6869H32.2354C28.333 30.6869 25.1602 33.8598 25.1602 37.7622V41.2585H20.7554V51.8301H25.1602V59.7587H56.8749V51.8301H61.2797V41.2585H56.8749V37.7622C56.8749 33.8598 53.702 30.6869 49.7996 30.6869H41.8985V27.9202C43.4161 27.5244 44.5414 26.1582 44.5414 24.5202C44.5414 22.5759 42.9618 20.9963 41.0175 20.9963ZM41.0175 22.7583C41.988 22.7583 42.7795 23.5498 42.7795 24.5202C42.7795 25.4906 41.988 26.2821 41.0175 26.2821C40.0471 26.2821 39.2556 25.4906 39.2556 24.5202C39.2556 23.5498 40.0471 22.7583 41.0175 22.7583ZM32.2354 32.4489H49.7996C52.7281 32.4489 55.1129 34.8337 55.1129 37.7622V57.9968H49.8272V50.9491H32.2079V57.9968H26.9221V37.7622C26.9221 34.8337 29.3069 32.4489 32.2354 32.4489ZM35.2913 37.7346C33.1061 37.7346 31.3269 39.5138 31.3269 41.699C31.3269 43.8842 33.1061 45.6633 35.2913 45.6633C37.4765 45.6633 39.2556 43.8842 39.2556 41.699C39.2556 39.5138 37.4765 37.7346 35.2913 37.7346ZM46.7438 37.7346C44.5586 37.7346 42.7795 39.5138 42.7795 41.699C42.7795 43.8842 44.5586 45.6633 46.7438 45.6633C48.929 45.6633 50.7081 43.8842 50.7081 41.699C50.7081 39.5138 48.929 37.7346 46.7438 37.7346ZM35.2913 39.4966C36.506 39.4966 37.4937 40.4842 37.4937 41.699C37.4937 42.9137 36.506 43.9014 35.2913 43.9014C34.0765 43.9014 33.0889 42.9137 33.0889 41.699C33.0889 40.4842 34.0765 39.4966 35.2913 39.4966ZM46.7438 39.4966C47.9586 39.4966 48.9462 40.4842 48.9462 41.699C48.9462 42.9137 47.9586 43.9014 46.7438 43.9014C45.529 43.9014 44.5414 42.9137 44.5414 41.699C44.5414 40.4842 45.529 39.4966 46.7438 39.4966ZM22.5173 43.0204H25.1602V50.0681H22.5173V43.0204ZM56.8749 43.0204H59.5178V50.0681H56.8749V43.0204ZM33.9698 52.711H37.4937V57.9968H33.9698V52.711ZM39.2556 52.711H42.7795V57.9968H39.2556V52.711ZM44.5414 52.711H48.0652V57.9968H44.5414V52.711Z" fill="#0070F0"/>
</svg>
