<svg width="42" height="42" viewBox="0 0 42 42" fill="none" xmlns="http://www.w3.org/2000/svg">
<rect width="42" height="42" rx="21" fill="#0070F0"/>
<path d="M28 23C28.7956 23 29.5587 23.3161 30.1213 23.8787C30.6839 24.4413 31 25.2044 31 26V26.715C31 30.292 26.79 33 21 33C15.21 33 11 30.433 11 26.715V26C11 25.2044 11.3161 24.4413 11.8787 23.8787C12.4413 23.3161 13.2044 23 14 23H28ZM21 9C21.7879 9 22.5681 9.15519 23.2961 9.45672C24.0241 9.75825 24.6855 10.2002 25.2426 10.7574C25.7998 11.3145 26.2417 11.9759 26.5433 12.7039C26.8448 13.4319 27 14.2121 27 15C27 15.7879 26.8448 16.5681 26.5433 17.2961C26.2417 18.0241 25.7998 18.6855 25.2426 19.2426C24.6855 19.7998 24.0241 20.2417 23.2961 20.5433C22.5681 20.8448 21.7879 21 21 21C19.4087 21 17.8826 20.3679 16.7574 19.2426C15.6321 18.1174 15 16.5913 15 15C15 13.4087 15.6321 11.8826 16.7574 10.7574C17.8826 9.63214 19.4087 9 21 9Z" fill="white"/>
</svg>
