<svg width="20" height="20" viewBox="0 0 20 20" fill="none" xmlns="http://www.w3.org/2000/svg">
<circle cx="10" cy="10" r="10" fill="white"/>
<g clip-path="url(#clip0_136_28)">
<path d="M9.99987 5.20001C9.51834 5.20001 9.12714 5.59121 9.12714 6.07274C9.12714 6.47842 9.40669 6.81677 9.78169 6.91478V7.60001H7.82487C6.85839 7.60001 6.0726 8.38581 6.0726 9.35228V10.2182H4.98169V12.8364H6.0726V14.8H13.9271V12.8364H15.0181V10.2182H13.9271V9.35228C13.9271 8.38581 13.1413 7.60001 12.1749 7.60001H10.2181V6.91478C10.5939 6.81677 10.8726 6.47842 10.8726 6.07274C10.8726 5.59121 10.4814 5.20001 9.99987 5.20001ZM9.99987 5.63638C10.2402 5.63638 10.4362 5.8324 10.4362 6.07274C10.4362 6.31308 10.2402 6.5091 9.99987 6.5091C9.75953 6.5091 9.56351 6.31308 9.56351 6.07274C9.56351 5.8324 9.75953 5.63638 9.99987 5.63638ZM7.82487 8.03638H12.1749C12.9002 8.03638 13.4908 8.627 13.4908 9.35228V14.3636H12.1817V12.6182H7.81805V14.3636H6.50896V9.35228C6.50896 8.627 7.09959 8.03638 7.82487 8.03638ZM8.58169 9.34547C8.0405 9.34547 7.59987 9.78609 7.59987 10.3273C7.59987 10.8685 8.0405 11.3091 8.58169 11.3091C9.12288 11.3091 9.56351 10.8685 9.56351 10.3273C9.56351 9.78609 9.12288 9.34547 8.58169 9.34547ZM11.4181 9.34547C10.8769 9.34547 10.4362 9.78609 10.4362 10.3273C10.4362 10.8685 10.8769 11.3091 11.4181 11.3091C11.9592 11.3091 12.3999 10.8685 12.3999 10.3273C12.3999 9.78609 11.9592 9.34547 11.4181 9.34547ZM8.58169 9.78183C8.88254 9.78183 9.12714 10.0264 9.12714 10.3273C9.12714 10.6281 8.88254 10.8727 8.58169 10.8727C8.28084 10.8727 8.03623 10.6281 8.03623 10.3273C8.03623 10.0264 8.28084 9.78183 8.58169 9.78183ZM11.4181 9.78183C11.7189 9.78183 11.9635 10.0264 11.9635 10.3273C11.9635 10.6281 11.7189 10.8727 11.4181 10.8727C11.1172 10.8727 10.8726 10.6281 10.8726 10.3273C10.8726 10.0264 11.1172 9.78183 11.4181 9.78183ZM5.41805 10.6546H6.0726V12.4H5.41805V10.6546ZM13.9271 10.6546H14.5817V12.4H13.9271V10.6546ZM8.25442 13.0546H9.12714V14.3636H8.25442V13.0546ZM9.56351 13.0546H10.4362V14.3636H9.56351V13.0546ZM10.8726 13.0546H11.7453V14.3636H10.8726V13.0546Z" fill="#0070F0"/>
</g>
<defs>
<clipPath id="clip0_136_28">
<rect width="10.9091" height="10.9091" fill="white" transform="translate(4.54541 4.54544)"/>
</clipPath>
</defs>
</svg>
