<svg width="49" height="49" viewBox="0 0 49 49" fill="none" xmlns="http://www.w3.org/2000/svg">
<circle cx="24.6153" cy="24.2994" r="24.0279" fill="#2B7996"/>
<path d="M16.5205 20.0613L17.3136 20.2662L16.5205 20.0613ZM20.3429 16.4636L20.4972 17.2681L20.3429 16.4636ZM22.5979 25.9855L22.3668 25.1997L22.5979 25.9855ZM23.8066 27.1943L23.0207 26.9632L23.8066 27.1943ZM29.7308 33.2717L29.9357 34.0648L29.7308 33.2717ZM33.3285 29.4493L34.133 29.6035L33.3285 29.4493ZM35.2449 19.4568L34.4404 19.3026V19.3026L35.2449 19.4568ZM30.3353 14.5472L30.181 13.7428L30.3353 14.5472ZM18.0681 30.5656C17.7482 30.8855 17.7482 31.4042 18.0681 31.7241C18.388 32.0439 18.9066 32.0439 19.2265 31.7241L18.0681 30.5656ZM20.7711 30.1795C21.091 29.8596 21.091 29.3409 20.7711 29.0211C20.4512 28.7012 19.9326 28.7012 19.6127 29.0211L20.7711 30.1795ZM18.8404 34.4271C18.5205 34.747 18.5205 35.2656 18.8404 35.5855C19.1603 35.9054 19.6789 35.9054 19.9988 35.5855L18.8404 34.4271ZM21.5434 34.0409C21.8633 33.721 21.8633 33.2024 21.5434 32.8825C21.2235 32.5626 20.7049 32.5626 20.385 32.8825L21.5434 34.0409ZM14.2067 29.7933C13.8868 30.1132 13.8868 30.6319 14.2067 30.9518C14.5266 31.2717 15.0452 31.2717 15.3651 30.9518L14.2067 29.7933ZM16.9097 29.4072C17.2296 29.0873 17.2296 28.5687 16.9097 28.2488C16.5898 27.9289 16.0711 27.9289 15.7512 28.2488L16.9097 29.4072ZM34.4404 19.3026L32.5241 29.295L34.133 29.6035L36.0494 19.6111L34.4404 19.3026ZM20.4972 17.2681L30.4896 15.3517L30.181 13.7428L20.1886 15.6591L20.4972 17.2681ZM17.3136 20.2662C17.7084 18.7378 18.9519 17.5645 20.4972 17.2681L20.1886 15.6591C18.0164 16.0757 16.2793 17.72 15.7274 19.8564L17.3136 20.2662ZM22.3668 25.1997C19.3606 26.0837 16.5244 23.3211 17.3136 20.2662L15.7274 19.8564C14.6255 24.122 18.5814 28.0205 22.829 26.7714L22.3668 25.1997ZM24.5925 27.4254C24.9928 26.0641 23.728 24.7993 22.3668 25.1997L22.829 26.7714C22.9463 26.7369 23.0552 26.8459 23.0207 26.9632L24.5925 27.4254ZM29.526 32.4786C26.471 33.2678 23.7084 30.4315 24.5925 27.4254L23.0207 26.9632C21.7716 31.2108 25.6701 35.1667 29.9357 34.0648L29.526 32.4786ZM32.5241 29.295C32.2277 30.8403 31.0544 32.0838 29.526 32.4786L29.9357 34.0648C32.0722 33.5129 33.7164 31.7757 34.133 29.6035L32.5241 29.295ZM36.0494 19.6111C36.7168 16.1308 33.6613 13.0753 30.181 13.7428L30.4896 15.3517C32.8327 14.9023 34.8898 16.9594 34.4404 19.3026L36.0494 19.6111ZM19.2265 31.7241L20.7711 30.1795L19.6127 29.0211L18.0681 30.5656L19.2265 31.7241ZM19.9988 35.5855L21.5434 34.0409L20.385 32.8825L18.8404 34.4271L19.9988 35.5855ZM15.3651 30.9518L16.9097 29.4072L15.7512 28.2488L14.2067 29.7933L15.3651 30.9518Z" fill="#F2F4F5"/>
</svg>
